<svg width="864" height="579" viewBox="0 0 864 579" fill="none" xmlns="http://www.w3.org/2000/svg">
<rect y="1" width="806" height="493" fill="#FEFEFE"/>
<path d="M805.401 436.652L805.403 494.43L731 493.933L805.401 436.652Z" fill="#F15B5B"/>
<path d="M641.588 560.113L650.699 506.856L666.543 425.598L700.237 427.831L705.217 510.47L641.588 560.113Z" fill="#F84661"/>
<path d="M706.666 567.876L704.858 513.895L700.239 431.281L667.714 429.125L652.231 510.407L706.666 567.876Z" fill="#F84661"/>
<path d="M771.676 558.459L708.676 511.459L695.78 438.415L743.955 427.087L763.176 511.459L771.676 558.459Z" fill="#F84661"/>
<path d="M715.991 571.335L747.705 517.363L728.406 445.824L700.498 452.386L710.672 534.362L715.991 571.335Z" fill="#F84661"/>
<path d="M68 403H615.824" stroke="#727272" stroke-width="3"/>
<line x1="65" y1="156" x2="731" y2="156" stroke="#9A9292" stroke-width="2"/>
<line x1="65" y1="199" x2="731" y2="199" stroke="#9A9292" stroke-width="2"/>
<line x1="65" y1="242" x2="731" y2="242" stroke="#9A9292" stroke-width="2"/>
<line x1="65" y1="285" x2="731" y2="285" stroke="#9A9292" stroke-width="2"/>
<line x1="215" y1="72.5" x2="588" y2="72.5" stroke="#F49595" stroke-width="5"/>
<path d="M0.420293 57.8195L0.420289 0.0410484L74.8236 0.54126L0.420293 57.8195Z" fill="#F15B5B"/>
<path d="M699.464 310.841C700.264 309.883 701.736 309.883 702.536 310.841L710.118 319.932C710.76 320.701 711.871 320.877 712.719 320.344L722.762 314.023C723.82 313.358 725.222 313.814 725.685 314.974L730.063 325.934C730.435 326.866 731.441 327.377 732.413 327.13L743.925 324.204C745.138 323.895 746.334 324.765 746.414 326.014L747.167 337.764C747.232 338.768 748.033 339.568 749.037 339.632L760.881 340.382C762.133 340.461 763.004 341.661 762.691 342.876L759.757 354.268C759.505 355.245 760.021 356.257 760.96 356.627L771.974 360.97C773.144 361.432 773.603 362.846 772.927 363.906L766.596 373.834C766.053 374.687 766.231 375.811 767.012 376.454L776.124 383.956C777.096 384.756 777.096 386.244 776.124 387.044L767.012 394.546C766.231 395.189 766.053 396.313 766.596 397.166L772.927 407.094C773.603 408.154 773.144 409.568 771.974 410.03L760.96 414.373C760.021 414.743 759.505 415.755 759.757 416.732L762.691 428.124C763.004 429.339 762.133 430.539 760.881 430.618L749.037 431.368C748.033 431.432 747.232 432.232 747.167 433.236L746.414 444.986C746.334 446.235 745.138 447.105 743.925 446.796L732.413 443.87C731.441 443.623 730.435 444.134 730.063 445.066L725.685 456.026C725.222 457.186 723.82 457.642 722.762 456.977L712.719 450.656C711.871 450.123 710.76 450.299 710.118 451.068L702.536 460.159C701.736 461.117 700.264 461.117 699.464 460.159L691.882 451.068C691.24 450.299 690.129 450.123 689.281 450.656L679.238 456.977C678.18 457.642 676.778 457.186 676.315 456.026L671.937 445.066C671.565 444.134 670.559 443.623 669.587 443.87L658.075 446.796C656.862 447.105 655.666 446.235 655.586 444.986L654.833 433.236C654.768 432.232 653.967 431.432 652.963 431.368L641.119 430.618C639.867 430.539 638.996 429.339 639.309 428.124L642.243 416.732C642.495 415.755 641.979 414.743 641.04 414.373L630.026 410.03C628.856 409.568 628.397 408.154 629.073 407.094L635.404 397.166C635.947 396.313 635.769 395.189 634.988 394.546L625.876 387.044C624.904 386.244 624.904 384.756 625.876 383.956L634.988 376.454C635.769 375.811 635.947 374.687 635.404 373.834L629.073 363.906C628.397 362.846 628.856 361.432 630.026 360.97L641.04 356.627C641.979 356.257 642.495 355.245 642.243 354.268L639.309 342.876C638.996 341.661 639.867 340.461 641.119 340.382L652.963 339.632C653.967 339.568 654.768 338.768 654.833 337.764L655.586 326.014C655.666 324.765 656.862 323.895 658.075 324.204L669.587 327.13C670.559 327.377 671.565 326.866 671.937 325.934L676.315 314.974C676.778 313.814 678.18 313.358 679.238 314.023L689.281 320.344C690.129 320.877 691.24 320.701 691.882 319.932L699.464 310.841Z" fill="#FF9900"/>
<path d="M57.8202 493.051L0.0433311 493.471L0.002285 419.066L57.8202 493.051Z" fill="#F15B5B"/>
<path d="M746.98 1.42307L804.757 1.00004L804.802 75.405L746.98 1.42307Z" fill="#F15B5B"/>
</svg>
