<svg width="105" height="122" viewBox="0 0 105 122" fill="none" xmlns="http://www.w3.org/2000/svg">
<g clip-path="url(#clip0_404_63)">
<path d="M53.0113 117.048L77.9156 121.852V80.3648H105V43.2131C105 43.2131 103.693 24.8642 80.9737 21.367C63.5976 18.698 36.7428 21.0378 24.9791 21.2872C19.8007 21.397 15.3058 23.0532 10.8458 25.4678C7.73778 27.1491 0.14978 36.5779 0.14978 40.8833V80.3648L52.4776 80.7989L53.0113 117.048Z" fill="url(#paint0_linear_404_63)"/>
<path opacity="0.1" d="M0.149788 80.3648L45.8424 80.7439V46.775C45.86 42.0145 44.5337 37.3456 42.016 33.3052C38.7084 28.062 32.8515 22.3947 22.9188 22.2151C4.32045 21.8658 0.00012207 41.452 0.00012207 41.452L0.149788 80.3648Z" fill="black"/>
<path opacity="0.1" d="M54.4781 80.3052L78.0652 90.2728V80.3052H54.4781Z" fill="black"/>
<path d="M49.14 0H67.8681V43.0635H64.1813L63.887 11.6489L49.14 12.1478V0Z" fill="url(#paint1_linear_404_63)"/>
</g>
<defs>
<linearGradient id="paint0_linear_404_63" x1="0.14978" y1="70.9759" x2="105" y2="70.9759" gradientUnits="userSpaceOnUse">
<stop stop-color="#E5A4ED"/>
<stop offset="1" stop-color="#7A5BF5"/>
</linearGradient>
<linearGradient id="paint1_linear_404_63" x1="49.14" y1="21.5318" x2="67.8681" y2="21.5318" gradientUnits="userSpaceOnUse">
<stop stop-color="#F8B14B"/>
<stop offset="1" stop-color="#F71D69"/>
</linearGradient>
<clipPath id="clip0_404_63">
<rect width="105" height="121.852" fill="white"/>
</clipPath>
</defs>
</svg>
