<?xml version="1.0" standalone="no"?>
<!DOCTYPE svg PUBLIC "-//W3C//DTD SVG 20010904//EN"
 "http://www.w3.org/TR/2001/REC-SVG-20010904/DTD/svg10.dtd">
<svg version="1.0" xmlns="http://www.w3.org/2000/svg"
 width="512.000000pt" height="512.000000pt" viewBox="0 0 512.000000 512.000000"
 preserveAspectRatio="xMidYMid meet">

<g fill="current" transform="translate(0.000000,512.000000) scale(0.100000,-0.100000)"
stroke="none">
<path d="M2485 5111 c-81 -21 -169 -91 -206 -163 -25 -49 -38 -137 -28 -197
15 -99 85 -190 180 -232 l49 -23 1 -240 c0 -267 6 -304 52 -320 42 -15 80 3
94 44 8 23 12 117 12 276 l1 240 51 24 c239 108 243 446 7 566 -54 27 -159 40
-213 25z m132 -152 c62 -23 105 -86 105 -154 0 -136 -160 -214 -262 -128 -142
119 -15 348 157 282z"/>
<path d="M1075 4454 c-42 -21 -392 -372 -410 -410 -19 -40 -19 -97 -1 -132 17
-32 161 -175 193 -191 27 -14 83 -14 119 -1 15 6 59 42 98 80 l72 69 179 -179
c167 -167 182 -180 216 -180 45 0 69 25 69 71 0 31 -17 51 -180 214 l-179 179
69 72 c38 39 74 83 80 98 13 36 13 92 -1 119 -16 32 -159 176 -191 193 -35 18
-95 18 -133 -2z m128 -192 l57 -57 -173 -173 -172 -172 -60 60 -60 60 170 170
c93 94 172 170 175 170 3 0 31 -26 63 -58z"/>
<path d="M3915 4458 c-31 -17 -175 -160 -191 -190 -16 -32 -18 -86 -4 -124 6
-15 42 -59 80 -98 l69 -72 -179 -179 c-167 -167 -180 -182 -180 -216 0 -45 25
-69 71 -69 31 0 51 17 214 180 l179 179 72 -69 c39 -38 83 -74 98 -80 38 -14
92 -12 124 4 32 17 175 161 191 193 14 27 14 83 0 120 -13 36 -373 398 -415
418 -37 17 -100 19 -129 3z m240 -308 l170 -170 -60 -60 -60 -60 -172 172
-173 173 57 57 c32 32 60 58 63 58 3 0 82 -76 175 -170z"/>
<path d="M2455 3754 c-488 -53 -889 -375 -1034 -829 -41 -130 -55 -223 -55
-370 1 -142 11 -215 51 -345 181 -605 827 -968 1439 -809 420 109 747 433 859
850 83 311 39 634 -124 912 -67 115 -91 140 -131 140 -35 0 -80 -39 -80 -70 0
-9 22 -50 49 -92 127 -199 174 -355 174 -581 0 -224 -54 -404 -176 -585 -52
-77 -166 -196 -242 -252 l-60 -45 -5 138 c-9 211 -30 244 -227 342 l-93 47 0
51 c0 51 1 53 50 89 95 70 163 190 181 321 5 44 9 187 7 321 -3 237 -4 243
-26 265 -23 23 -23 23 -345 23 -291 0 -327 -2 -377 -19 -72 -25 -159 -110
-184 -181 -24 -65 -33 -308 -17 -415 21 -131 86 -244 186 -319 55 -42 56 -43
53 -89 l-3 -47 -125 -65 c-116 -61 -127 -69 -156 -117 -35 -59 -44 -110 -44
-251 l0 -93 -32 18 c-55 31 -213 190 -265 265 -292 423 -243 975 119 1336 341
341 865 407 1270 160 151 -92 134 -85 165 -68 38 21 56 61 44 93 -29 75 -331
220 -535 256 -68 12 -253 21 -311 15z m433 -720 c3 -110 15 -103 -178 -111
-104 -4 -156 -1 -225 12 -76 14 -232 59 -243 70 -6 6 26 60 46 78 46 41 85 46
347 44 l250 -2 3 -91z m-513 -230 c95 -27 111 -28 309 -29 l208 0 -6 -60 c-12
-106 -33 -154 -100 -221 -70 -70 -131 -96 -226 -96 -95 0 -156 26 -226 96 -73
74 -93 123 -101 255 l-6 94 24 -6 c13 -3 69 -18 124 -33z m277 -610 c4 -47 10
-60 42 -93 35 -36 36 -38 18 -54 -32 -29 -96 -50 -152 -50 -58 0 -134 27 -158
56 -12 14 -10 18 8 29 31 19 57 67 65 120 l7 46 83 1 83 0 4 -55z m-267 -308
c146 -72 335 -43 446 70 l42 43 37 -19 c52 -27 60 -57 60 -231 l0 -148 -28
-15 c-47 -24 -180 -56 -284 -67 -148 -16 -382 17 -480 67 l-30 15 4 163 c3
176 5 182 63 217 l30 19 45 -45 c25 -24 68 -55 95 -69z"/>
<path d="M262 2868 c-98 -15 -180 -76 -230 -173 -22 -42 -26 -63 -26 -135 0
-72 4 -93 26 -135 51 -98 131 -157 232 -173 144 -23 278 48 337 179 l23 49
241 0 c250 0 297 6 315 40 16 30 12 68 -10 90 -19 19 -33 20 -280 20 l-260 0
-26 55 c-65 137 -194 206 -342 183z m129 -164 c117 -59 115 -229 -3 -290 -65
-34 -151 -14 -201 46 -112 133 47 323 204 244z"/>
<path d="M4749 2870 c-99 -17 -186 -86 -233 -185 l-26 -55 -260 0 c-247 0
-261 -1 -280 -20 -22 -22 -26 -60 -10 -90 18 -34 65 -40 315 -40 l241 0 23
-49 c59 -131 193 -202 338 -179 98 15 181 77 231 173 22 43 26 63 26 135 0 72
-4 93 -26 135 -14 28 -43 67 -65 88 -58 59 -92 74 -208 91 -11 2 -41 0 -66 -4z
m132 -166 c39 -19 77 -69 85 -109 19 -104 -56 -197 -161 -197 -144 0 -216 165
-119 272 51 57 125 69 195 34z"/>
<path d="M1325 1430 l-179 -179 -72 69 c-39 38 -83 74 -98 80 -36 13 -92 13
-119 -1 -32 -16 -176 -159 -193 -191 -18 -35 -18 -92 1 -132 20 -42 382 -402
418 -415 39 -15 93 -14 125 3 32 17 175 161 191 193 14 27 14 83 1 119 -6 15
-42 59 -80 98 l-69 72 179 179 c167 167 180 182 180 216 0 45 -25 69 -71 69
-31 0 -51 -17 -214 -180z m-125 -575 l-60 -60 -172 172 -173 173 60 60 60 60
172 -172 173 -173 -60 -60z"/>
<path d="M3527 1592 c-10 -10 -17 -34 -17 -53 0 -31 17 -51 180 -214 l179
-179 -69 -72 c-38 -39 -74 -83 -80 -98 -13 -36 -13 -92 1 -119 16 -32 159
-176 191 -193 35 -18 92 -18 132 1 42 20 402 382 415 418 15 39 14 93 -3 125
-17 32 -161 175 -193 191 -27 14 -83 14 -119 1 -15 -6 -59 -42 -98 -80 l-72
-69 -179 179 c-167 167 -182 180 -216 180 -22 0 -42 -7 -52 -18z m626 -624
l-173 -173 -60 60 -60 60 172 172 173 173 60 -60 60 -60 -172 -172z"/>
<path d="M2518 1179 c-31 -17 -38 -79 -38 -320 l0 -235 -49 -23 c-131 -59
-202 -193 -179 -337 16 -101 75 -181 173 -232 42 -22 63 -26 135 -26 73 0 92
4 136 26 95 50 157 132 172 231 23 145 -47 279 -177 337 l-51 24 0 235 c0 245
-7 304 -40 321 -24 13 -60 12 -82 -1z m130 -726 c100 -75 100 -202 -2 -277
-39 -29 -133 -29 -172 0 -111 82 -99 234 21 290 40 19 119 12 153 -13z"/>
</g>
</svg>
